# xmcd
#
# Track frame offsets:
#	150
#	12785
#	31895
#	42794
#	52681
#	64421
#	76493
#	89677
#	102344
#	121929
#	133682
#	147992
#	164760
#	178871
#
# Disc length: 2589 seconds
#
# Revision: 1
# Processed by: cddbd v1.5.2PL0 Copyright (c) Steve Scherf et al.
# Submitted via: audiograbber 1.83.01
#
DISCID=bf0a1b0e
DTITLE=BENNO - Wenn die Schwalben heimwärts ziehn
DYEAR=2007
DGENRE=
TTITLE0=Gretl-Boarischer
TTITLE1=He Slavko spiel uns eins
TTITLE2=Es ist so schön ein Musikant zu sein
TTITLE3=Timpel-Boarischer
TTITLE4=He Nachbarin
TTITLE5=Steig ich den Berg hinauf
TTITLE6=Trachtenpolka
TTITLE7=Der Paul und sein Gaul
TTITLE8=Fliege mit mir in die Heimat
TTITLE9=Schneewalzer
TTITLE10=Der Morgenmuffel
TTITLE11=Wenn die Schwalben heimwärts ziehn
TTITLE12=Gretl-Boarischer - French House
TTITLE13=Der Morgenmuffel - Retro-Pop
EXTD=
EXTT0=
EXTT1=
EXTT2=
EXTT3=
EXTT4=
EXTT5=
EXTT6=
EXTT7=
EXTT8=
EXTT9=
EXTT10=
EXTT11=
EXTT12=
EXTT13=
PLAYORDER=
